<?xml version="1.0" encoding="UTF-8"?>
<svg id="Layer_1" data-name="Layer 1" xmlns="http://www.w3.org/2000/svg" viewBox="0 0 476.02 574">
  <defs>
    <style>
      .cls-1, .cls-2 {
        fill: #351f16;
      }

      .cls-3 {
        letter-spacing: -.12em;
      }

      .cls-4, .cls-5 {
        fill: #6f4422;
      }

      .cls-2 {
        font-family: CooperBlackStd, 'Cooper Std';
        font-size: 116.43px;
      }

      .cls-6 {
        fill: #45b549;
      }

      .cls-5 {
        font-family: Revalate-Regular, Revalate;
        font-size: 42.08px;
        letter-spacing: .17em;
      }
    </style>
  </defs>
  <g>
    <path class="cls-4" d="M384.66,249.18c-.32,34.19-25.68,69.55-60.4,80.36-4.92,1.53-8.8,2.02-13.11-1.87-7.12-6.42-16.28-9.07-25.53-9.73-8.27-.59-8.37-4.03-6.72-10.63,3.11-12.48,9.26-22.86,19.29-30.76,27.25-21.45,51.35-45.47,64.99-78.2,2.71-6.51,5.02-2.07,6.92,.41,10.37,13.6,14.94,29.1,14.56,50.42Z"/>
    <path class="cls-4" d="M319.43,367.48c-5.74,15.79-19.2,25.03-36.51,25.59-16.49,.54-32.72-8.78-38.62-22.17-4.93-11.2-2.71-14.44,9.19-13.64,7.59,.51,14.73,2.71,21.86,5.16,17.74,6.1,26.39,7.07,44.09,5.06Z"/>
    <path class="cls-6" d="M188.7,308.77c-29.37-20.48-59.03-14.52-88.05,1.72-10.82,6.05-10.9,8.27-1.88,17.21,18.15,17.98,40.38,27.11,65.47,28.32,18.16,.88,33.5,6.11,45.13,20.54,1,1.24,2.51,4.39,4.06,.22-7.75-16.55-18.37-30.98-31.87-43.36,16.09,7.91,27.91,19.78,34.31,36.75h0c3.61,6.59,4.63,13.35,9.85,21.75,1.3-35.84-9.2-63.75-37.02-83.14Z"/>
    <path class="cls-6" d="M330.49,.57c-19.07,2.5-37.79,6.52-56.06,12.64-78.99,26.49-123.21,87.42-120.52,166.87,1.5,44.2,17.39,83.42,43.04,118.97,6.72,9.31,13.44,18.7,24.87,27.85-5.73-13.55-10.92-24.23-14.85-35.35-13.75-38.95-19.1-78.44-5.99-118.8,2.97-8.22,3.94-14.96,9.76-23.73-1.24,7.88-2.26,8.99-3.45,17.62-4.93,42.11-4.73,83.57,14.84,122.61,.94-1.07,1.2-2.07,1.07-3.02-4.35-29.99,1.31-57.58,17.76-83.39,10.58-16.6,26.54-27.56,39.5-41.6,38.91-42.15,61.68-90.99,62.79-148.96,.24-12.37-.92-13.26-12.78-11.71Z"/>
    <path class="cls-1" d="M349.78,183.29c-4.3-8.16-17.08-8.42-27.13-8.66-36.61-.87-71.76,28.02-80.67,66.66-6.26,27.17-2.65,52.15,18.88,75.34,1.92-11.24,4.52-19.66,8.71-27.55,10.27-19.32,24.99-35.03,40.51-50.07,10.32-10,21.31-19.38,29.39-31.44,5.1-7.61,14.16-16.95,10.3-24.29Zm-86.52,40.84c-6.76,11.89-11.62,24.6-14.81,39.01-5.48-21.98,17.55-63.85,39.77-72.48-9.48,11.11-18.2,21.61-24.95,33.48Z"/>
    <path class="cls-1" d="M319.32,346.75c-5.69-13.6-20.54-23.38-36.83-23.51-17.86-.14-31.99,8.7-38.66,25.31,9.49-.38,18.08,.02,26.32,2.08,8.26,2.07,16.24,5.3,24.26,8.24,5.96,2.18,11.89,2.95,18.13,1.41,7.66-1.89,9.99-5.85,6.77-13.53Zm-54.93-13.88c9.95-5.42,20.06-6.46,30.39-1.14-10.21-1.74-20.25,1.19-30.39,1.14Z"/>
  </g>
  <text class="cls-2" transform="translate(0 488.13) scale(.79 1)"><tspan x="0" y="0">Café </tspan><tspan class="cls-3" x="310.87" y="0">Y</tspan><tspan x="391.79" y="0">aya</tspan></text>
  <text class="cls-5" transform="translate(95.5 547.54)"><tspan x="0" y="0">Puerto Rico</tspan></text>
  <rect class="cls-4" x="69.62" y="531.24" width="13.4" height="5.43"/>
  <rect class="cls-4" x="393.79" y="531.24" width="13.4" height="5.43"/>
</svg>